<svg xmlns="http://www.w3.org/2000/svg" xmlns:svg="http://www.w3.org/2000/svg" id="svg75" width="88.172" height="54.078" preserveAspectRatio="xMidYMid" version="1.0" viewBox="0 0 66.129 40.558" zoomAndPan="magnify"><defs id="defs9"><clipPath id="28d5349562"><path id="path1" d="m 21.789062,176.88672 h 66 v 40.5 h -66 z m 0,0" clip-rule="nonzero"/></clipPath><clipPath id="8a22c2770b"><path id="path2" d="m 24.039062,179.08203 h 61.636719 v 36.87891 H 24.039062 Z m 0,0" clip-rule="nonzero"/></clipPath><clipPath id="896e1b1fa6"><path id="path3" d="m 24.121094,205.30078 c 0.613281,-3.84766 1.050781,-4.63281 1.660156,-5.33203 0.527344,-0.69922 1.3125,-1.39844 2.011719,-1.92578 0.875,-0.52344 1.75,-0.8711 2.710937,-1.22266 0.875,-0.4375 2.183594,-0.78515 2.796875,-0.96094 0.261719,-0.0859 0.613281,0 0.613281,-0.17578 0.08594,-0.0859 -0.4375,-0.26172 -0.527343,-0.52343 -0.171875,-0.52344 0,-1.92188 0.261719,-2.79688 0.265624,-0.78906 1.050781,-2.09766 1.226562,-2.35937 0,0 0.08594,0 0.08594,-0.0898 0,-0.17578 -0.347657,-0.60937 -0.4375,-1.13672 -0.08594,-0.69922 0,-1.74609 0.351562,-2.62109 0.261719,-0.96094 0.960938,-2.09766 1.746094,-2.71094 0.699218,-0.69922 1.664062,-0.875 2.449218,-1.30859 0.785157,-0.4375 1.484376,-1.13672 2.273438,-1.48828 0.785156,-0.34766 1.660156,-0.52344 2.535156,-0.69922 0.960938,-0.26172 1.835938,-0.52344 2.796875,-0.61328 0.960938,-0.17188 1.921875,-0.17188 2.882813,-0.17188 0.964844,0 1.75,0 2.710937,0.0859 0.875,0.0859 1.925781,0.0859 2.796875,0.26172 0.875,0.26172 1.75,0.69922 2.535156,1.22265 0.699219,0.52735 1.136719,1.40235 1.835938,2.01172 0.613281,0.69922 1.488281,1.3125 2.1875,1.92188 0.699219,0.52734 1.222656,1.3125 2.011719,1.75 0.699219,0.4375 1.570312,0.78515 2.445312,0.875 0.875,0.17578 1.835938,-0.0898 2.796875,0 0.875,0 1.925782,0 2.796875,0.34765 0.789063,0.35157 1.574219,0.96485 2.1875,1.57422 0.613281,0.69922 1.136719,1.66016 1.484375,2.53516 0.261719,0.78906 0.351563,1.75 0.4375,2.625 0.08984,0.87109 -0.347656,2.35937 0.08984,2.70703 0.433594,0.26172 1.746094,-0.87109 2.621094,-0.96094 0.960937,-0.0859 1.921875,0.26172 2.796875,0.61328 0.875,0.26172 1.660156,0.69922 2.359375,1.22266 0.613281,0.61328 1.226562,1.48828 1.488281,2.27344 0.347656,0.875 0.261719,1.92187 0.347656,2.79687 0,0.96094 0.08984,1.83594 0,2.71094 -0.171875,0.96094 -0.347656,2.18359 -0.785156,2.97266 -0.523437,0.875 -1.398437,1.39843 -2.097656,2.00781 -0.699219,0.61328 -1.3125,1.3125 -2.097657,1.83594 -0.789062,0.52734 -1.75,1.05078 -2.625,1.48828 -0.871093,0.4375 -1.835937,0.69922 -2.796874,0.96094 -0.875,0.26171 -1.746094,0.4375 -2.796876,0.52343 -0.960937,0.17578 -2.097656,0.26172 -3.234374,0.26172 -1.136719,0.0898 -2.359376,0.0898 -3.496094,0.0898 -1.050782,-0.0898 -2.097656,-0.0898 -3.058594,-0.0898 -0.964844,0 -1.925781,-0.0859 -2.886719,-0.0859 -0.960937,0 -1.921875,0 -2.882812,0 -1.136719,0 -2.273438,0.0859 -3.5,0.0859 -1.308594,0 -2.882813,0.0898 -4.105469,0 -1.050781,0 -1.835938,0 -2.710938,0 -0.960937,-0.0859 -2.011718,-0.0859 -2.972656,-0.0859 -1.050781,-0.0859 -2.011718,-0.0859 -3.058594,-0.17578 -0.960937,0 -2.011718,0 -2.972656,-0.0859 -0.960937,0 -2.011718,-0.0859 -2.972656,-0.0859 -0.960938,-0.0898 -1.921875,-0.0898 -2.886719,-0.26563 -0.960937,-0.0859 -1.835937,-0.17187 -2.707031,-0.52343 -0.875,-0.34766 -1.75,-0.96094 -2.363281,-1.57422 -0.609375,-0.60938 -1.136719,-1.39844 -1.484375,-2.1836 -0.351563,-0.875 -0.613282,-1.83593 -0.785156,-2.79687 -0.08984,-0.875 -0.08984,-2.71094 -0.08984,-2.71094" clip-rule="nonzero"/></clipPath><clipPath id="861046787c"><path id="path4" d="m 32.308594,187.26562 h 54.09375 v 27.85547 h -54.09375 z m 0,0" clip-rule="nonzero"/></clipPath><clipPath id="0b30cb1230"><path id="path5" d="m 76.746094,209.23437 c 3.761718,-2.09765 0.265625,-3.49609 -0.871094,-4.63281 -0.875,-0.78515 -1.488281,-1.48828 -1.925781,-2.35937 -0.347657,-0.78907 -0.609375,-2.53516 -0.347657,-2.625 0.261719,-0.17188 2.273438,1.39843 2.097657,1.92578 -0.351563,1.22265 -10.402344,2.00781 -13.375,2.18359 -1.488281,0.17578 -1.925781,0.26172 -3.324219,-0.0859 -2.882812,-0.52734 -8.914062,-3.84765 -12.324219,-4.63281 -2.449219,-0.4375 -4.285156,-0.4375 -6.292969,-0.35156 -1.925781,0.17578 -4.199218,1.57422 -5.507812,1.05078 -1.226562,-0.52734 -2.1875,-1.83594 -2.449219,-3.23437 -0.347656,-2.09766 1.050781,-7.16797 2.535157,-8.30469 0.960937,-0.78906 2.886718,-0.875 3.757812,-0.26172 0.789062,0.52344 1.574219,2.53516 1.226562,3.49609 -0.261718,0.96094 -2.097656,2.1836 -3.058593,2.1836 -0.875,0.0898 -2.101563,-0.69922 -2.535157,-1.48438 -0.4375,-0.875 -0.265624,-2.97265 0.347657,-3.76172 0.523437,-0.60937 1.921875,-1.13672 2.710937,-0.96093 0.960938,0.26171 2.273438,1.48828 2.710938,2.71093 0.433594,1.66016 -0.875,6.82032 -1.574219,6.90625 -0.4375,0 -2.011719,-2.79687 -1.660156,-3.49609 0.261719,-0.61328 1.398437,-0.69922 2.535156,-0.875 2.097656,-0.26172 6.117187,-0.0859 9.351563,0.61328 3.671874,0.87109 7.167968,4.01953 11.363281,4.54297 4.808593,0.52734 12.589843,-2.97266 15.738281,-2.35938 1.484375,0.35157 2.445312,1.05079 3.058594,1.83594 0.523437,0.69922 0.08594,1.92188 0.785156,2.6211 0.875,1.05078 4.109375,1.05078 5.160156,2.01171 0.699219,0.69922 0.960938,1.39844 1.222656,2.44922 0.261719,1.39844 0.261719,3.84375 -0.261718,5.50782 -0.523438,1.57421 -1.75,3.58203 -2.796875,4.37109 -0.789063,0.60937 -1.574219,0.69922 -2.625,0.78516 -1.484375,0.0859 -4.371094,0 -5.417969,-0.875 -0.789062,-0.60938 -1.226562,-2.00782 -1.136719,-2.79688 0.08594,-0.61328 0.613281,-1.22266 1.046875,-1.57422 0.4375,-0.34765 1.835938,-0.52344 1.835938,-0.52344" clip-rule="nonzero"/></clipPath><clipPath id="679c9d713b"><path id="path6" d="m 70,202.78906 h 8.96875 v 12.73828 H 70 Z m 0,0" clip-rule="nonzero"/></clipPath><clipPath id="8cae1708c4"><path id="path7" d="m 74.175781,203.69922 c 4.949219,6.67578 5.023438,8.625 4.574219,9.67578 -0.300781,0.82422 -0.976562,1.35156 -1.574219,1.72656 -0.675781,0.375 -1.652343,0.44922 -2.402343,0.375 -0.824219,0 -1.949219,-0.22656 -2.546876,-0.75 -0.601562,-0.52734 -1.125,-1.35156 -1.125,-2.25 -0.07812,-1.20312 0.972657,-3.375 1.875,-4.20312 0.597657,-0.52344 1.574219,-0.82422 2.25,-0.67188 0.75,0.22266 1.875,1.5 2.023438,2.25 0.148438,0.75 -0.375,1.72266 -0.898438,2.17188 -0.527343,0.45312 -1.652343,0.67578 -2.328124,0.45312 -0.671876,-0.15234 -1.5,-0.97656 -1.648438,-1.65234 -0.226562,-0.75 0.375,-2.39844 1.050781,-2.84766 0.675781,-0.45312 2.398438,-0.22656 3,0.22266 0.597657,0.44922 0.824219,1.57422 0.824219,2.25 0,0.52734 -0.300781,1.125 -0.75,1.42578 -0.449219,0.30078 -1.5,0.52344 -2.25,0.14844 -1.351562,-0.67188 -3.601562,-4.57422 -4.050781,-6 -0.222657,-0.67188 -0.222657,-1.19922 0,-1.64844 0.152343,-0.52344 0.527343,-1.05078 0.976562,-1.27344 0.449219,-0.22656 1.125,-0.375 1.648438,-0.22656 0.449219,0.0742 1.351562,0.82422 1.351562,0.82422" clip-rule="nonzero"/></clipPath><clipPath id="aff6c3f6a0"><path id="path8" d="m 45.222656,185.49609 h 35.347656 v 26.95703 H 45.222656 Z m 0,0" clip-rule="nonzero"/></clipPath><clipPath id="ec6430f889"><path id="path9" d="m 66.976562,201.375 c -1.050781,-10.72656 -2.625,-10.875 -2.851562,-11.69922 -0.300781,-0.90234 0.75,-3.22656 0.824219,-3.22656 0.152343,0.0742 -0.375,1.94922 -0.07422,2.625 0.300781,0.67578 1.949219,0.90234 1.800781,1.42578 -0.226562,1.5 -16.652343,4.42578 -16.574219,5.625 0.07422,0.97656 6.523438,0.44922 10.273438,1.80078 5.324219,1.94922 15.449219,9.97266 18,10.27344 0.601562,0.0742 0.824219,-0.44922 1.199219,-0.30078 0.375,0.15234 0.824219,0.90234 0.902343,1.42578 0.148438,0.52734 0,1.19922 -0.226562,1.65234 -0.226562,0.44922 -0.75,0.89844 -1.273438,1.125 -0.527343,0.14844 -1.203124,0.14844 -1.652343,-0.0781 -0.597657,-0.29688 -1.273438,-1.125 -1.5,-1.72266 -0.07422,-0.44922 0,-1.05078 0.226562,-1.5 0.222657,-0.44922 0.597657,-0.90234 1.050781,-1.05078 0.523438,-0.30078 1.648438,-0.30078 2.25,0 0.523438,0.30078 1.199219,1.19922 1.199219,1.875 0,0.75 -0.824219,2.10156 -1.5,2.39844 -0.601562,0.30078 -1.726562,0.15234 -2.25,-0.22266 -0.527343,-0.375 -0.976562,-1.35156 -0.976562,-2.02734 0,-0.59766 0.527343,-1.57422 1.050781,-1.94922 0.523438,-0.30078 1.574219,-0.44922 2.175781,-0.14844 0.597657,0.22266 1.273438,1.05078 1.425781,1.64844 0.148438,0.52734 0,1.19922 -0.226562,1.65234 -0.226562,0.44922 -0.75,0.89844 -1.273438,1.125 -0.75,0.29688 -2.027343,0.44922 -3.078124,0.0742 -1.5,-0.375 -2.847657,-2.17578 -4.949219,-3.375 C 67.875,207 62.851562,204.44922 58.875,202.94922 c -3.601562,-1.27344 -8.625,-1.64844 -10.648438,-2.84766 -1.125,-0.60156 -1.578124,-1.27734 -2.101562,-2.02734 -0.449219,-0.82422 -0.824219,-1.72266 -0.824219,-2.625 0,-0.82422 0.148438,-1.80078 0.75,-2.55078 0.824219,-1.125 2.847657,-2.25 4.648438,-2.92188 2.027343,-0.82812 4.949219,-0.67578 6.976562,-1.35156 1.722657,-0.60156 2.847657,-1.80078 4.425781,-2.25 1.5,-0.52344 3.523438,-0.97656 4.796876,-0.67578 0.828124,0.15234 1.800781,0.52734 2.027343,1.125 0.300781,0.67578 -0.601562,2.625 -0.601562,2.625 0,0 0.226562,-2.47266 0.601562,-2.55078 0.449219,-0.0742 1.800781,2.32812 2.25,4.05078 0.75,2.55078 0.675781,8.40234 0.375,10.27734 -0.07422,0.75 -0.152343,1.19922 -0.527343,1.57422 -0.375,0.44922 -1.347657,0.82422 -1.949219,0.82422 -0.523438,0 -1.125,-0.375 -1.5,-0.75 -0.375,-0.375 -0.597657,-1.5 -0.597657,-1.5" clip-rule="nonzero"/></clipPath></defs><g id="g79" transform="translate(-21.789062,-176.89062)"><g id="g10" clip-path="url(#28d5349562)" style="display:inline;fill:#fff;fill-opacity:1"><path id="path10" fill="#252f3e" fill-opacity="1" fill-rule="nonzero" d="m 87,201.25781 c -0.585938,-1.38672 -1.425781,-2.63281 -2.496094,-3.70312 -1.070312,-1.07032 -2.316406,-1.91016 -3.703125,-2.4961 -1.070312,-0.45312 -2.1875,-0.73828 -3.339843,-0.85547 -0.113282,-0.98828 -0.363282,-1.95312 -0.753907,-2.875 -0.53125,-1.25 -1.285156,-2.37109 -2.25,-3.33593 -0.960937,-0.96094 -2.082031,-1.71875 -3.332031,-2.2461 -1.292969,-0.54687 -2.667969,-0.82422 -4.082031,-0.82422 -1.113281,0 -2.199219,0.16797 -3.242188,0.50782 -1.421875,-2.38672 -3.394531,-4.41016 -5.765625,-5.89063 -2.769531,-1.73437 -5.96875,-2.64844 -9.25,-2.64844 -2.359375,0 -4.648437,0.46094 -6.800781,1.3711 -2.082031,0.88281 -3.949219,2.14062 -5.554687,3.74609 -1.605469,1.60156 -2.863282,3.46875 -3.742188,5.55078 -0.910156,2.14844 -1.371094,4.42969 -1.375,6.77735 -2.449219,0.45312 -4.691406,1.68359 -6.410156,3.53125 -2.007813,2.16406 -3.113282,4.97656 -3.113282,7.92968 0,1.56641 0.304688,3.08594 0.910157,4.51954 0.582031,1.38671 1.417969,2.6289 2.484375,3.69921 1.0625,1.06641 2.300781,1.91016 3.683594,2.5 1.414062,0.60547 2.917968,0.91797 4.46875,0.92969 0.01562,0.004 0.03125,0.004 0.05078,0.004 h 42.878906 c 1.570313,0 3.097656,-0.3086 4.535156,-0.91797 1.386719,-0.58594 2.632813,-1.42578 3.703125,-2.49609 1.070313,-1.07032 1.910156,-2.31641 2.496094,-3.70313 0.609375,-1.4375 0.917969,-2.96484 0.917969,-4.53516 0,-1.57421 -0.308594,-3.10156 -0.917969,-4.53906 z m -4.289062,10.98828 c -1.722657,1.71875 -4.011719,2.66797 -6.445313,2.66797 H 33.429688 c -0.01172,0 -0.02344,0 -0.03516,0 -2.425781,-0.0117 -4.707031,-0.96484 -6.417969,-2.6875 -1.710937,-1.71875 -2.652343,-4.0039 -2.652343,-6.42969 0,-2.3125 0.863281,-4.51562 2.433593,-6.20312 1.5625,-1.68359 3.679688,-2.71094 5.957032,-2.89063 0.691406,-0.0508 1.210937,-0.65234 1.164062,-1.34375 -0.02344,-0.33203 -0.03125,-0.66796 -0.03125,-1 0,-2.01562 0.394532,-3.97265 1.171875,-5.8125 0.753907,-1.78125 1.828125,-3.3789 3.203125,-4.75 1.371094,-1.37109 2.96875,-2.44921 4.746094,-3.19921 1.84375,-0.78125 3.796875,-1.17579 5.816406,-1.17579 2.804688,0 5.542969,0.78516 7.910156,2.26563 2.300782,1.44141 4.171876,3.48047 5.40625,5.89844 0.304688,0.60156 1.035157,0.85937 1.652344,0.57812 1.035156,-0.47265 2.140625,-0.71094 3.289063,-0.71094 2.125,0 4.121093,0.82813 5.625,2.33204 1.503906,1.5 2.328125,3.5 2.328125,5.625 0,0.69921 0.570312,1.26562 1.269531,1.26562 2.433594,0 4.722656,0.94922 6.445313,2.67188 1.722656,1.72265 2.671874,4.01171 2.671874,6.44921 0,2.4336 -0.949218,4.72657 -2.671874,6.44922 z m 0,0" style="fill:#fff;fill-opacity:1"/></g><g id="g16" clip-path="url(#679c9d713b)" style="display:inline;fill:#fff;fill-opacity:1"><g id="g15" clip-path="url(#8cae1708c4)" style="fill:#fff;fill-opacity:1"><path id="path14" fill="#252f3e" fill-opacity="1" fill-rule="nonzero" d="m 67.199219,199.875 h 14.625 v 18.67969 h -14.625 z m 0,0" style="fill:#fff;fill-opacity:1"/></g></g><g id="g18" clip-path="url(#aff6c3f6a0)" style="display:inline;fill:#fff;fill-opacity:1"><g id="g17" clip-path="url(#ec6430f889)" style="fill:#fff;fill-opacity:1"><path id="path16" fill="#252f3e" fill-opacity="1" fill-rule="nonzero" d="M 42.300781,182.69922 H 83.496094 V 215.25 H 42.300781 Z m 0,0" style="fill:#fff;fill-opacity:1"/></g></g><g id="g76" style="display:inline"><g id="g12" clip-path="url(#8a22c2770b)" style="fill:#fff;fill-opacity:1"><g id="g11" clip-path="url(#896e1b1fa6)" style="fill:#fff;fill-opacity:1"><path id="path11" fill="#252f3e" fill-opacity="1" fill-rule="nonzero" d="M 20.625,175.66406 H 88.921875 V 219.375 H 20.625 Z m 0,0" style="fill:#fff;fill-opacity:1"/></g></g><g id="g14" clip-path="url(#861046787c)" style="display:inline;fill:#fff;fill-opacity:1"><g id="g13" clip-path="url(#0b30cb1230)" style="fill:#fff;fill-opacity:1"><path id="path12" fill="#252f3e" fill-opacity="1" fill-rule="nonzero" d="M 28.929688,183.88281 H 89.644531 V 218.5 H 28.929688 Z m 0,0" style="fill:#fff;fill-opacity:1"/></g></g><g id="g21" fill="#fff" fill-opacity="1" style="fill:#1b293d;fill-opacity:1"><g id="g20" transform="translate(29.750122,221.25886)" style="fill:#1b293d;fill-opacity:1"><g id="g19" style="fill:#1b293d;fill-opacity:1"><path id="path18" d="M 0.78125,0 15.375,-35.921875 h 0.71875 L 30.6875,0 h -7.796875 l -1.40625,-3.734375 h -11.5 L 8.625,0 Z M 12.515625,-10.234375 H 18.90625 L 15.75,-19.25 Z m 0,0" style="fill:#1b293d;fill-opacity:1"/></g></g></g><g id="g24" fill="#fff" fill-opacity="1" style="fill:#1b293d;fill-opacity:1"><g id="g23" transform="translate(54.267706,226.57759)" style="fill:#1b293d;fill-opacity:1"><g id="g22" style="fill:#1b293d;fill-opacity:1"><path id="path21" d="M 0.609375,0 12.03125,-28.109375 h 0.5625 L 24.015625,0 H 17.90625 L 16.8125,-2.921875 h -9 L 6.75,0 Z M 9.78125,-8 h 5.015625 l -2.46875,-7.0625 z m 0,0" style="fill:#1b293d;fill-opacity:1"/></g></g></g></g></g></svg>