<svg xmlns="http://www.w3.org/2000/svg" xmlns:svg="http://www.w3.org/2000/svg" id="svg75" width="449.131" height="66.249" preserveAspectRatio="xMidYMid" version="1.0" viewBox="0 0 336.848 49.687" zoomAndPan="magnify"><defs id="defs9"><clipPath id="28d5349562"><path id="path1" d="m 21.789062,176.88672 h 66 v 40.5 h -66 z m 0,0" clip-rule="nonzero"/></clipPath><clipPath id="8a22c2770b"><path id="path2" d="m 24.039062,179.08203 h 61.636719 v 36.87891 H 24.039062 Z m 0,0" clip-rule="nonzero"/></clipPath><clipPath id="896e1b1fa6"><path id="path3" d="m 24.121094,205.30078 c 0.613281,-3.84766 1.050781,-4.63281 1.660156,-5.33203 0.527344,-0.69922 1.3125,-1.39844 2.011719,-1.92578 0.875,-0.52344 1.75,-0.8711 2.710937,-1.22266 0.875,-0.4375 2.183594,-0.78515 2.796875,-0.96094 0.261719,-0.0859 0.613281,0 0.613281,-0.17578 0.08594,-0.0859 -0.4375,-0.26172 -0.527343,-0.52343 -0.171875,-0.52344 0,-1.92188 0.261719,-2.79688 0.265624,-0.78906 1.050781,-2.09766 1.226562,-2.35937 0,0 0.08594,0 0.08594,-0.0898 0,-0.17578 -0.347657,-0.60937 -0.4375,-1.13672 -0.08594,-0.69922 0,-1.74609 0.351562,-2.62109 0.261719,-0.96094 0.960938,-2.09766 1.746094,-2.71094 0.699218,-0.69922 1.664062,-0.875 2.449218,-1.30859 0.785157,-0.4375 1.484376,-1.13672 2.273438,-1.48828 0.785156,-0.34766 1.660156,-0.52344 2.535156,-0.69922 0.960938,-0.26172 1.835938,-0.52344 2.796875,-0.61328 0.960938,-0.17188 1.921875,-0.17188 2.882813,-0.17188 0.964844,0 1.75,0 2.710937,0.0859 0.875,0.0859 1.925781,0.0859 2.796875,0.26172 0.875,0.26172 1.75,0.69922 2.535156,1.22265 0.699219,0.52735 1.136719,1.40235 1.835938,2.01172 0.613281,0.69922 1.488281,1.3125 2.1875,1.92188 0.699219,0.52734 1.222656,1.3125 2.011719,1.75 0.699219,0.4375 1.570312,0.78515 2.445312,0.875 0.875,0.17578 1.835938,-0.0898 2.796875,0 0.875,0 1.925782,0 2.796875,0.34765 0.789063,0.35157 1.574219,0.96485 2.1875,1.57422 0.613281,0.69922 1.136719,1.66016 1.484375,2.53516 0.261719,0.78906 0.351563,1.75 0.4375,2.625 0.08984,0.87109 -0.347656,2.35937 0.08984,2.70703 0.433594,0.26172 1.746094,-0.87109 2.621094,-0.96094 0.960937,-0.0859 1.921875,0.26172 2.796875,0.61328 0.875,0.26172 1.660156,0.69922 2.359375,1.22266 0.613281,0.61328 1.226562,1.48828 1.488281,2.27344 0.347656,0.875 0.261719,1.92187 0.347656,2.79687 0,0.96094 0.08984,1.83594 0,2.71094 -0.171875,0.96094 -0.347656,2.18359 -0.785156,2.97266 -0.523437,0.875 -1.398437,1.39843 -2.097656,2.00781 -0.699219,0.61328 -1.3125,1.3125 -2.097657,1.83594 -0.789062,0.52734 -1.75,1.05078 -2.625,1.48828 -0.871093,0.4375 -1.835937,0.69922 -2.796874,0.96094 -0.875,0.26171 -1.746094,0.4375 -2.796876,0.52343 -0.960937,0.17578 -2.097656,0.26172 -3.234374,0.26172 -1.136719,0.0898 -2.359376,0.0898 -3.496094,0.0898 -1.050782,-0.0898 -2.097656,-0.0898 -3.058594,-0.0898 -0.964844,0 -1.925781,-0.0859 -2.886719,-0.0859 -0.960937,0 -1.921875,0 -2.882812,0 -1.136719,0 -2.273438,0.0859 -3.5,0.0859 -1.308594,0 -2.882813,0.0898 -4.105469,0 -1.050781,0 -1.835938,0 -2.710938,0 -0.960937,-0.0859 -2.011718,-0.0859 -2.972656,-0.0859 -1.050781,-0.0859 -2.011718,-0.0859 -3.058594,-0.17578 -0.960937,0 -2.011718,0 -2.972656,-0.0859 -0.960937,0 -2.011718,-0.0859 -2.972656,-0.0859 -0.960938,-0.0898 -1.921875,-0.0898 -2.886719,-0.26563 -0.960937,-0.0859 -1.835937,-0.17187 -2.707031,-0.52343 -0.875,-0.34766 -1.75,-0.96094 -2.363281,-1.57422 -0.609375,-0.60938 -1.136719,-1.39844 -1.484375,-2.1836 -0.351563,-0.875 -0.613282,-1.83593 -0.785156,-2.79687 -0.08984,-0.875 -0.08984,-2.71094 -0.08984,-2.71094" clip-rule="nonzero"/></clipPath><clipPath id="861046787c"><path id="path4" d="m 32.308594,187.26562 h 54.09375 v 27.85547 h -54.09375 z m 0,0" clip-rule="nonzero"/></clipPath><clipPath id="0b30cb1230"><path id="path5" d="m 76.746094,209.23437 c 3.761718,-2.09765 0.265625,-3.49609 -0.871094,-4.63281 -0.875,-0.78515 -1.488281,-1.48828 -1.925781,-2.35937 -0.347657,-0.78907 -0.609375,-2.53516 -0.347657,-2.625 0.261719,-0.17188 2.273438,1.39843 2.097657,1.92578 -0.351563,1.22265 -10.402344,2.00781 -13.375,2.18359 -1.488281,0.17578 -1.925781,0.26172 -3.324219,-0.0859 -2.882812,-0.52734 -8.914062,-3.84765 -12.324219,-4.63281 -2.449219,-0.4375 -4.285156,-0.4375 -6.292969,-0.35156 -1.925781,0.17578 -4.199218,1.57422 -5.507812,1.05078 -1.226562,-0.52734 -2.1875,-1.83594 -2.449219,-3.23437 -0.347656,-2.09766 1.050781,-7.16797 2.535157,-8.30469 0.960937,-0.78906 2.886718,-0.875 3.757812,-0.26172 0.789062,0.52344 1.574219,2.53516 1.226562,3.49609 -0.261718,0.96094 -2.097656,2.1836 -3.058593,2.1836 -0.875,0.0898 -2.101563,-0.69922 -2.535157,-1.48438 -0.4375,-0.875 -0.265624,-2.97265 0.347657,-3.76172 0.523437,-0.60937 1.921875,-1.13672 2.710937,-0.96093 0.960938,0.26171 2.273438,1.48828 2.710938,2.71093 0.433594,1.66016 -0.875,6.82032 -1.574219,6.90625 -0.4375,0 -2.011719,-2.79687 -1.660156,-3.49609 0.261719,-0.61328 1.398437,-0.69922 2.535156,-0.875 2.097656,-0.26172 6.117187,-0.0859 9.351563,0.61328 3.671874,0.87109 7.167968,4.01953 11.363281,4.54297 4.808593,0.52734 12.589843,-2.97266 15.738281,-2.35938 1.484375,0.35157 2.445312,1.05079 3.058594,1.83594 0.523437,0.69922 0.08594,1.92188 0.785156,2.6211 0.875,1.05078 4.109375,1.05078 5.160156,2.01171 0.699219,0.69922 0.960938,1.39844 1.222656,2.44922 0.261719,1.39844 0.261719,3.84375 -0.261718,5.50782 -0.523438,1.57421 -1.75,3.58203 -2.796875,4.37109 -0.789063,0.60937 -1.574219,0.69922 -2.625,0.78516 -1.484375,0.0859 -4.371094,0 -5.417969,-0.875 -0.789062,-0.60938 -1.226562,-2.00782 -1.136719,-2.79688 0.08594,-0.61328 0.613281,-1.22266 1.046875,-1.57422 0.4375,-0.34765 1.835938,-0.52344 1.835938,-0.52344" clip-rule="nonzero"/></clipPath><clipPath id="679c9d713b"><path id="path6" d="m 70,202.78906 h 8.96875 v 12.73828 H 70 Z m 0,0" clip-rule="nonzero"/></clipPath><clipPath id="8cae1708c4"><path id="path7" d="m 74.175781,203.69922 c 4.949219,6.67578 5.023438,8.625 4.574219,9.67578 -0.300781,0.82422 -0.976562,1.35156 -1.574219,1.72656 -0.675781,0.375 -1.652343,0.44922 -2.402343,0.375 -0.824219,0 -1.949219,-0.22656 -2.546876,-0.75 -0.601562,-0.52734 -1.125,-1.35156 -1.125,-2.25 -0.07812,-1.20312 0.972657,-3.375 1.875,-4.20312 0.597657,-0.52344 1.574219,-0.82422 2.25,-0.67188 0.75,0.22266 1.875,1.5 2.023438,2.25 0.148438,0.75 -0.375,1.72266 -0.898438,2.17188 -0.527343,0.45312 -1.652343,0.67578 -2.328124,0.45312 -0.671876,-0.15234 -1.5,-0.97656 -1.648438,-1.65234 -0.226562,-0.75 0.375,-2.39844 1.050781,-2.84766 0.675781,-0.45312 2.398438,-0.22656 3,0.22266 0.597657,0.44922 0.824219,1.57422 0.824219,2.25 0,0.52734 -0.300781,1.125 -0.75,1.42578 -0.449219,0.30078 -1.5,0.52344 -2.25,0.14844 -1.351562,-0.67188 -3.601562,-4.57422 -4.050781,-6 -0.222657,-0.67188 -0.222657,-1.19922 0,-1.64844 0.152343,-0.52344 0.527343,-1.05078 0.976562,-1.27344 0.449219,-0.22656 1.125,-0.375 1.648438,-0.22656 0.449219,0.0742 1.351562,0.82422 1.351562,0.82422" clip-rule="nonzero"/></clipPath><clipPath id="aff6c3f6a0"><path id="path8" d="m 45.222656,185.49609 h 35.347656 v 26.95703 H 45.222656 Z m 0,0" clip-rule="nonzero"/></clipPath><clipPath id="ec6430f889"><path id="path9" d="m 66.976562,201.375 c -1.050781,-10.72656 -2.625,-10.875 -2.851562,-11.69922 -0.300781,-0.90234 0.75,-3.22656 0.824219,-3.22656 0.152343,0.0742 -0.375,1.94922 -0.07422,2.625 0.300781,0.67578 1.949219,0.90234 1.800781,1.42578 -0.226562,1.5 -16.652343,4.42578 -16.574219,5.625 0.07422,0.97656 6.523438,0.44922 10.273438,1.80078 5.324219,1.94922 15.449219,9.97266 18,10.27344 0.601562,0.0742 0.824219,-0.44922 1.199219,-0.30078 0.375,0.15234 0.824219,0.90234 0.902343,1.42578 0.148438,0.52734 0,1.19922 -0.226562,1.65234 -0.226562,0.44922 -0.75,0.89844 -1.273438,1.125 -0.527343,0.14844 -1.203124,0.14844 -1.652343,-0.0781 -0.597657,-0.29688 -1.273438,-1.125 -1.5,-1.72266 -0.07422,-0.44922 0,-1.05078 0.226562,-1.5 0.222657,-0.44922 0.597657,-0.90234 1.050781,-1.05078 0.523438,-0.30078 1.648438,-0.30078 2.25,0 0.523438,0.30078 1.199219,1.19922 1.199219,1.875 0,0.75 -0.824219,2.10156 -1.5,2.39844 -0.601562,0.30078 -1.726562,0.15234 -2.25,-0.22266 -0.527343,-0.375 -0.976562,-1.35156 -0.976562,-2.02734 0,-0.59766 0.527343,-1.57422 1.050781,-1.94922 0.523438,-0.30078 1.574219,-0.44922 2.175781,-0.14844 0.597657,0.22266 1.273438,1.05078 1.425781,1.64844 0.148438,0.52734 0,1.19922 -0.226562,1.65234 -0.226562,0.44922 -0.75,0.89844 -1.273438,1.125 -0.75,0.29688 -2.027343,0.44922 -3.078124,0.0742 -1.5,-0.375 -2.847657,-2.17578 -4.949219,-3.375 C 67.875,207 62.851562,204.44922 58.875,202.94922 c -3.601562,-1.27344 -8.625,-1.64844 -10.648438,-2.84766 -1.125,-0.60156 -1.578124,-1.27734 -2.101562,-2.02734 -0.449219,-0.82422 -0.824219,-1.72266 -0.824219,-2.625 0,-0.82422 0.148438,-1.80078 0.75,-2.55078 0.824219,-1.125 2.847657,-2.25 4.648438,-2.92188 2.027343,-0.82812 4.949219,-0.67578 6.976562,-1.35156 1.722657,-0.60156 2.847657,-1.80078 4.425781,-2.25 1.5,-0.52344 3.523438,-0.97656 4.796876,-0.67578 0.828124,0.15234 1.800781,0.52734 2.027343,1.125 0.300781,0.67578 -0.601562,2.625 -0.601562,2.625 0,0 0.226562,-2.47266 0.601562,-2.55078 0.449219,-0.0742 1.800781,2.32812 2.25,4.05078 0.75,2.55078 0.675781,8.40234 0.375,10.27734 -0.07422,0.75 -0.152343,1.19922 -0.527343,1.57422 -0.375,0.44922 -1.347657,0.82422 -1.949219,0.82422 -0.523438,0 -1.125,-0.375 -1.5,-0.75 -0.375,-0.375 -0.597657,-1.5 -0.597657,-1.5" clip-rule="nonzero"/></clipPath></defs><g id="g79" transform="translate(-21.789062,-176.89062)"><g id="g10" clip-path="url(#28d5349562)" style="display:inline"><path id="path10" fill="#252f3e" fill-opacity="1" fill-rule="nonzero" d="m 87,201.25781 c -0.585938,-1.38672 -1.425781,-2.63281 -2.496094,-3.70312 -1.070312,-1.07032 -2.316406,-1.91016 -3.703125,-2.4961 -1.070312,-0.45312 -2.1875,-0.73828 -3.339843,-0.85547 -0.113282,-0.98828 -0.363282,-1.95312 -0.753907,-2.875 -0.53125,-1.25 -1.285156,-2.37109 -2.25,-3.33593 -0.960937,-0.96094 -2.082031,-1.71875 -3.332031,-2.2461 -1.292969,-0.54687 -2.667969,-0.82422 -4.082031,-0.82422 -1.113281,0 -2.199219,0.16797 -3.242188,0.50782 -1.421875,-2.38672 -3.394531,-4.41016 -5.765625,-5.89063 -2.769531,-1.73437 -5.96875,-2.64844 -9.25,-2.64844 -2.359375,0 -4.648437,0.46094 -6.800781,1.3711 -2.082031,0.88281 -3.949219,2.14062 -5.554687,3.74609 -1.605469,1.60156 -2.863282,3.46875 -3.742188,5.55078 -0.910156,2.14844 -1.371094,4.42969 -1.375,6.77735 -2.449219,0.45312 -4.691406,1.68359 -6.410156,3.53125 -2.007813,2.16406 -3.113282,4.97656 -3.113282,7.92968 0,1.56641 0.304688,3.08594 0.910157,4.51954 0.582031,1.38671 1.417969,2.6289 2.484375,3.69921 1.0625,1.06641 2.300781,1.91016 3.683594,2.5 1.414062,0.60547 2.917968,0.91797 4.46875,0.92969 0.01562,0.004 0.03125,0.004 0.05078,0.004 h 42.878906 c 1.570313,0 3.097656,-0.3086 4.535156,-0.91797 1.386719,-0.58594 2.632813,-1.42578 3.703125,-2.49609 1.070313,-1.07032 1.910156,-2.31641 2.496094,-3.70313 0.609375,-1.4375 0.917969,-2.96484 0.917969,-4.53516 0,-1.57421 -0.308594,-3.10156 -0.917969,-4.53906 z m -4.289062,10.98828 c -1.722657,1.71875 -4.011719,2.66797 -6.445313,2.66797 H 33.429688 c -0.01172,0 -0.02344,0 -0.03516,0 -2.425781,-0.0117 -4.707031,-0.96484 -6.417969,-2.6875 -1.710937,-1.71875 -2.652343,-4.0039 -2.652343,-6.42969 0,-2.3125 0.863281,-4.51562 2.433593,-6.20312 1.5625,-1.68359 3.679688,-2.71094 5.957032,-2.89063 0.691406,-0.0508 1.210937,-0.65234 1.164062,-1.34375 -0.02344,-0.33203 -0.03125,-0.66796 -0.03125,-1 0,-2.01562 0.394532,-3.97265 1.171875,-5.8125 0.753907,-1.78125 1.828125,-3.3789 3.203125,-4.75 1.371094,-1.37109 2.96875,-2.44921 4.746094,-3.19921 1.84375,-0.78125 3.796875,-1.17579 5.816406,-1.17579 2.804688,0 5.542969,0.78516 7.910156,2.26563 2.300782,1.44141 4.171876,3.48047 5.40625,5.89844 0.304688,0.60156 1.035157,0.85937 1.652344,0.57812 1.035156,-0.47265 2.140625,-0.71094 3.289063,-0.71094 2.125,0 4.121093,0.82813 5.625,2.33204 1.503906,1.5 2.328125,3.5 2.328125,5.625 0,0.69921 0.570312,1.26562 1.269531,1.26562 2.433594,0 4.722656,0.94922 6.445313,2.67188 1.722656,1.72265 2.671874,4.01171 2.671874,6.44921 0,2.4336 -0.949218,4.72657 -2.671874,6.44922 z m 0,0"/></g><g id="g16" clip-path="url(#679c9d713b)" style="display:inline"><g id="g15" clip-path="url(#8cae1708c4)"><path id="path14" fill="#252f3e" fill-opacity="1" fill-rule="nonzero" d="m 67.199219,199.875 h 14.625 v 18.67969 h -14.625 z m 0,0"/></g></g><g id="g18" clip-path="url(#aff6c3f6a0)" style="display:inline"><g id="g17" clip-path="url(#ec6430f889)"><path id="path16" fill="#252f3e" fill-opacity="1" fill-rule="nonzero" d="M 42.300781,182.69922 H 83.496094 V 215.25 H 42.300781 Z m 0,0"/></g></g><g id="g76" style="display:inline"><g id="g12" clip-path="url(#8a22c2770b)"><g id="g11" clip-path="url(#896e1b1fa6)"><path id="path11" fill="#252f3e" fill-opacity="1" fill-rule="nonzero" d="M 20.625,175.66406 H 88.921875 V 219.375 H 20.625 Z m 0,0"/></g></g><g id="g14" clip-path="url(#861046787c)" style="display:inline"><g id="g13" clip-path="url(#0b30cb1230)"><path id="path12" fill="#252f3e" fill-opacity="1" fill-rule="nonzero" d="M 28.929688,183.88281 H 89.644531 V 218.5 H 28.929688 Z m 0,0"/></g></g><g id="g21" fill="#fff" fill-opacity="1"><g id="g20" transform="translate(29.750122,221.25886)"><g id="g19"><path id="path18" d="M 0.78125,0 15.375,-35.921875 h 0.71875 L 30.6875,0 h -7.796875 l -1.40625,-3.734375 h -11.5 L 8.625,0 Z M 12.515625,-10.234375 H 18.90625 L 15.75,-19.25 Z m 0,0"/></g></g></g><g id="g24" fill="#fff" fill-opacity="1"><g id="g23" transform="translate(54.267706,226.57759)"><g id="g22"><path id="path21" d="M 0.609375,0 12.03125,-28.109375 h 0.5625 L 24.015625,0 H 17.90625 L 16.8125,-2.921875 h -9 L 6.75,0 Z M 9.78125,-8 h 5.015625 l -2.46875,-7.0625 z m 0,0"/></g></g></g></g></g><g id="g78" transform="translate(-21.789062,-181.43792)"><g id="g27" fill="#252f3e" fill-opacity="1" style="display:inline"><g id="g26" transform="translate(97.69806,217.53141)"><g id="g25"><path id="path24" d="M 9.65625,-22.1875 H 11.5 L 20.71875,0 h -2.3125 l -2.875,-6.9375 H 5.5625 L 2.71875,0 H 0.375 Z m 5.375,13.53125 L 10.5625,-19.625 6.03125,-8.65625 Z m 0,0"/></g></g></g><g id="g30" fill="#252f3e" fill-opacity="1"><g id="g29" transform="translate(118.81778,217.53141)"><g id="g28"><path id="path27" d="m 1.25,-8.09375 c 0,-1.539062 0.316406,-2.953125 0.953125,-4.234375 0.632813,-1.28125 1.515625,-2.304687 2.640625,-3.078125 1.125,-0.769531 2.40625,-1.15625 3.84375,-1.15625 1.351562,0 2.566406,0.359375 3.640625,1.078125 1.070313,0.71875 1.910156,1.589844 2.515625,2.609375 v -9.9375 h 2.125 v 20.25 c 0,0.292969 0.0625,0.507812 0.1875,0.640625 0.125,0.136719 0.3125,0.214844 0.5625,0.234375 V 0 C 17.300781,0.0625 16.976562,0.0820312 16.75,0.0625 16.3125,0.0390625 15.925781,-0.132812 15.59375,-0.46875 c -0.335938,-0.332031 -0.5,-0.695312 -0.5,-1.09375 V -3.15625 C 14.445312,-2.09375 13.570312,-1.25 12.46875,-0.625 11.363281,0 10.21875,0.3125 9.03125,0.3125 7.90625,0.3125 6.867188,0.0820312 5.921875,-0.375 4.972656,-0.832031 4.148438,-1.457031 3.453125,-2.25 2.753906,-3.039062 2.210938,-3.941406 1.828125,-4.953125 1.441406,-5.960938 1.25,-7.007812 1.25,-8.09375 Z m 13.59375,2.5 V -10.625 c -0.273438,-0.75 -0.710938,-1.429688 -1.3125,-2.046875 -0.605469,-0.613281 -1.289062,-1.101563 -2.046875,-1.46875 C 10.722656,-14.503906 9.96875,-14.6875 9.21875,-14.6875 c -0.875,0 -1.667969,0.183594 -2.375,0.546875 -0.710938,0.367187 -1.320312,0.859375 -1.828125,1.484375 -0.511719,0.625 -0.902344,1.335938 -1.171875,2.125 -0.273438,0.792969 -0.40625,1.605469 -0.40625,2.4375 0,0.875 0.148438,1.710938 0.453125,2.5 0.300781,0.792969 0.734375,1.496094 1.296875,2.109375 0.5625,0.617187 1.207031,1.089844 1.9375,1.421875 0.726562,0.335938 1.519531,0.5 2.375,0.5 0.539062,0 1.101562,-0.101562 1.6875,-0.3125 0.582031,-0.207031 1.140625,-0.492188 1.671875,-0.859375 0.53125,-0.363281 0.972656,-0.796875 1.328125,-1.296875 0.351562,-0.5 0.570312,-1.019531 0.65625,-1.5625 z m 0,0"/></g></g></g><g id="g33" fill="#252f3e" fill-opacity="1"><g id="g32" transform="translate(138.25041,217.53141)"><g id="g31"><path id="path30" d="m 10.46875,-14.40625 c -1.417969,0.04297 -2.664062,0.4375 -3.734375,1.1875 -1.074219,0.75 -1.828125,1.78125 -2.265625,3.09375 V 0 h -2.125 v -16.28125 h 2 v 3.90625 c 0.5625,-1.144531 1.304688,-2.070312 2.234375,-2.78125 0.925781,-0.707031 1.910156,-1.101562 2.953125,-1.1875 0.207031,-0.01953 0.390625,-0.03125 0.546875,-0.03125 0.15625,0 0.285156,0.01172 0.390625,0.03125 z m 0,0"/></g></g></g><g id="g36" fill="#252f3e" fill-opacity="1"><g id="g35" transform="translate(149.21643,217.53141)"><g id="g34"><path id="path33" d="m 2.34375,0 v -16.28125 h 2.125 V 0 Z m 0,-19.6875 v -3.125 h 2.125 v 3.125 z m 0,0"/></g></g></g><g id="g39" fill="#252f3e" fill-opacity="1"><g id="g38" transform="translate(156.02723,217.53141)"><g id="g37"><path id="path36" d="m 1.03125,-4.6875 c 0,-1.019531 0.289062,-1.898438 0.875,-2.640625 0.582031,-0.738281 1.390625,-1.3125 2.421875,-1.71875 1.03125,-0.40625 2.222656,-0.609375 3.578125,-0.609375 0.789062,0 1.613281,0.0625 2.46875,0.1875 0.851562,0.125 1.613281,0.3125 2.28125,0.5625 v -1.375 c 0,-1.375 -0.40625,-2.46875 -1.21875,-3.28125 -0.8125,-0.8125 -1.9375,-1.21875 -3.375,-1.21875 -0.875,0 -1.734375,0.164062 -2.578125,0.484375 C 4.640625,-13.972656 3.757812,-13.5 2.84375,-12.875 l -0.8125,-1.5 c 1.0625,-0.726562 2.101562,-1.273438 3.125,-1.640625 1.019531,-0.363281 2.0625,-0.546875 3.125,-0.546875 2,0 3.582031,0.574219 4.75,1.71875 1.164062,1.148438 1.75,2.730469 1.75,4.75 v 7.53125 c 0,0.292969 0.0625,0.507812 0.1875,0.640625 0.125,0.136719 0.320312,0.214844 0.59375,0.234375 V 0 c -0.230469,0.0195312 -0.429688,0.0390625 -0.59375,0.0625 -0.167969,0.0195312 -0.292969,0.0195312 -0.375,0 -0.523438,-0.0234375 -0.917969,-0.1875 -1.1875,-0.5 -0.273438,-0.3125 -0.417969,-0.644531 -0.4375,-1 L 12.9375,-2.625 c -0.730469,0.9375 -1.679688,1.664062 -2.84375,2.171875 C 8.925781,0.0546875 7.738281,0.3125 6.53125,0.3125 c -1.042969,0 -1.984375,-0.2265625 -2.828125,-0.671875 -0.84375,-0.445313 -1.5,-1.050781 -1.96875,-1.8125 C 1.265625,-2.929688 1.03125,-3.769531 1.03125,-4.6875 Z m 10.90625,1.25 c 0.226562,-0.289062 0.40625,-0.570312 0.53125,-0.84375 0.125,-0.269531 0.1875,-0.507812 0.1875,-0.71875 V -7.375 C 11.945312,-7.644531 11.210938,-7.851562 10.453125,-8 9.691406,-8.144531 8.925781,-8.21875 8.15625,-8.21875 c -1.523438,0 -2.75,0.304688 -3.6875,0.90625 -0.9375,0.605469 -1.40625,1.429688 -1.40625,2.46875 0,0.605469 0.15625,1.171875 0.46875,1.703125 0.3125,0.53125 0.769531,0.96875 1.375,1.3125 0.601562,0.34375 1.3125,0.515625 2.125,0.515625 1.019531,0 1.972656,-0.195312 2.859375,-0.59375 0.882813,-0.394531 1.566406,-0.90625 2.046875,-1.53125 z m 0,0"/></g></g></g><g id="g42" fill="#252f3e" fill-opacity="1"><g id="g41" transform="translate(173.05422,217.53141)"><g id="g40"><path id="path39" d="m 16.03125,0 h -2.125 v -9.09375 c 0,-1.914062 -0.28125,-3.316406 -0.84375,-4.203125 C 12.5,-14.179688 11.613281,-14.625 10.40625,-14.625 c -0.835938,0 -1.65625,0.203125 -2.46875,0.609375 -0.8125,0.40625 -1.527344,0.960937 -2.140625,1.65625 -0.617187,0.699219 -1.058594,1.496094 -1.328125,2.390625 V 0 h -2.125 v -16.28125 h 1.9375 v 3.6875 c 0.4375,-0.789062 1.007812,-1.484375 1.71875,-2.078125 0.707031,-0.59375 1.507812,-1.054687 2.40625,-1.390625 0.894531,-0.332031 1.820312,-0.5 2.78125,-0.5 0.894531,0 1.65625,0.167969 2.28125,0.5 0.625,0.335938 1.125,0.808594 1.5,1.421875 0.375,0.617187 0.644531,1.355469 0.8125,2.21875 0.164062,0.867187 0.25,1.828125 0.25,2.890625 z m 0,0"/></g></g></g><g id="g45" fill="#252f3e" fill-opacity="1"><g id="g44" transform="translate(191.26842,217.53141)"><g id="g43"><path id="path42" d="M 10.15625,-0.78125 C 9.988281,-0.71875 9.726562,-0.601562 9.375,-0.4375 9.019531,-0.269531 8.59375,-0.125 8.09375,0 7.59375,0.125 7.050781,0.1875 6.46875,0.1875 5.863281,0.1875 5.296875,0.0703125 4.765625,-0.15625 4.234375,-0.382812 3.8125,-0.734375 3.5,-1.203125 3.1875,-1.671875 3.03125,-2.25 3.03125,-2.9375 v -11.65625 h -2.25 v -1.6875 h 2.25 v -5.5 h 2.125 v 5.5 h 3.75 v 1.6875 h -3.75 v 11.0625 c 0.039062,0.585938 0.253906,1.023438 0.640625,1.3125 0.382813,0.292969 0.828125,0.4375 1.328125,0.4375 0.582031,0 1.113281,-0.097656 1.59375,-0.296875 C 9.195312,-2.273438 9.488281,-2.414062 9.59375,-2.5 Z m 0,0"/></g></g></g><g id="g48" fill="#252f3e" fill-opacity="1"><g id="g47" transform="translate(201.73455,217.53141)"><g id="g46"><path id="path45" d="m 2.1875,-6.71875 v -9.5625 h 2.125 v 9.1875 c 0,1.855469 0.316406,3.242188 0.953125,4.15625 0.632813,0.917969 1.578125,1.375 2.828125,1.375 0.832031,0 1.640625,-0.179688 2.421875,-0.546875 0.78125,-0.363281 1.472656,-0.882813 2.078125,-1.5625 0.601562,-0.675781 1.0625,-1.460937 1.375,-2.359375 v -10.25 h 2.125 V -2.5625 c 0,0.292969 0.0625,0.507812 0.1875,0.640625 0.125,0.136719 0.3125,0.214844 0.5625,0.234375 V 0 C 16.59375,0.0195312 16.394531,0.0351562 16.25,0.046875 16.101562,0.0546875 15.96875,0.0625 15.84375,0.0625 15.425781,0.0195312 15.066406,-0.144531 14.765625,-0.4375 14.460938,-0.726562 14.300781,-1.082031 14.28125,-1.5 l -0.0625,-2.1875 c -0.710938,1.25 -1.671875,2.230469 -2.890625,2.9375 -1.21875,0.7109375 -2.539063,1.0625 -3.953125,1.0625 -1.710938,0 -3,-0.59375 -3.875,-1.78125 -0.875,-1.1875 -1.3125,-2.9375 -1.3125,-5.25 z m 0,0"/></g></g></g><g id="g51" fill="#252f3e" fill-opacity="1"><g id="g50" transform="translate(220.29242,217.53141)"><g id="g49"><path id="path48" d="m 16.03125,0 h -2.125 v -9.09375 c 0,-1.914062 -0.28125,-3.316406 -0.84375,-4.203125 C 12.5,-14.179688 11.613281,-14.625 10.40625,-14.625 c -0.835938,0 -1.65625,0.203125 -2.46875,0.609375 -0.8125,0.40625 -1.527344,0.960937 -2.140625,1.65625 -0.617187,0.699219 -1.058594,1.496094 -1.328125,2.390625 V 0 h -2.125 v -16.28125 h 1.9375 v 3.6875 c 0.4375,-0.789062 1.007812,-1.484375 1.71875,-2.078125 0.707031,-0.59375 1.507812,-1.054687 2.40625,-1.390625 0.894531,-0.332031 1.820312,-0.5 2.78125,-0.5 0.894531,0 1.65625,0.167969 2.28125,0.5 0.625,0.335938 1.125,0.808594 1.5,1.421875 0.375,0.617187 0.644531,1.355469 0.8125,2.21875 0.164062,0.867187 0.25,1.828125 0.25,2.890625 z m 0,0"/></g></g></g><g id="g54" fill="#252f3e" fill-opacity="1"><g id="g53" transform="translate(238.50661,217.53141)"><g id="g52"><path id="path51" d="m 9.375,0.3125 c -1.167969,0 -2.25,-0.2265625 -3.25,-0.671875 -1,-0.445313 -1.867188,-1.0625 -2.59375,-1.84375 C 2.800781,-2.984375 2.234375,-3.882812 1.828125,-4.90625 1.421875,-5.925781 1.21875,-7.019531 1.21875,-8.1875 c 0,-1.519531 0.347656,-2.914062 1.046875,-4.1875 0.695313,-1.269531 1.660156,-2.285156 2.890625,-3.046875 1.226562,-0.757813 2.625,-1.140625 4.1875,-1.140625 1.601562,0 3.003906,0.386719 4.203125,1.15625 1.195313,0.773438 2.140625,1.789062 2.828125,3.046875 0.6875,1.261719 1.03125,2.640625 1.03125,4.140625 0,0.167969 0,0.328125 0,0.484375 0,0.15625 -0.01172,0.277344 -0.03125,0.359375 H 3.4375 c 0.101562,1.167969 0.429688,2.203125 0.984375,3.109375 0.550781,0.90625 1.269531,1.625 2.15625,2.15625 0.882813,0.53125 1.847656,0.796875 2.890625,0.796875 1.0625,0 2.066406,-0.269531 3.015625,-0.8125 0.945313,-0.539062 1.609375,-1.25 1.984375,-2.125 l 1.84375,0.5 c -0.335938,0.773438 -0.84375,1.46875 -1.53125,2.09375 -0.6875,0.625 -1.496094,1.109375 -2.421875,1.453125 C 11.429688,0.140625 10.4375,0.3125 9.375,0.3125 Z m -6,-9.21875 h 12.03125 c -0.08594,-1.1875 -0.402344,-2.226562 -0.953125,-3.125 -0.554687,-0.894531 -1.273437,-1.597656 -2.15625,-2.109375 C 11.410156,-14.648438 10.4375,-14.90625 9.375,-14.90625 c -1.0625,0 -2.03125,0.257812 -2.90625,0.765625 -0.875,0.511719 -1.589844,1.21875 -2.140625,2.125 -0.554687,0.90625 -0.871094,1.945313 -0.953125,3.109375 z m 0,0"/></g></g></g><g id="g57" fill="#252f3e" fill-opacity="1"><g id="g56" transform="translate(256.84578,217.53141)"><g id="g55"><path id="path54" d="M 0.96875,-1.4375 11.875,-14.6875 H 1.21875 v -1.59375 h 13.0625 v 1.4375 L 3.4375,-1.59375 H 14.25 V 0 H 0.96875 Z m 0,0"/></g></g></g><g id="g60" fill="#252f3e" fill-opacity="1"><g id="g59" transform="translate(272.21694,217.53141)"><g id="g58"><path id="path57" d="M 2.03125,0 V -3.0625 H 3.875 V 0 Z m 0,0"/></g></g></g><g id="g63" fill="#252f3e" fill-opacity="1"><g id="g62" transform="translate(278.12171,217.53141)"><g id="g61"><path id="path60" d="M 9.40625,0.3125 C 8.21875,0.3125 7.128906,0.0859375 6.140625,-0.359375 5.148438,-0.804688 4.285156,-1.425781 3.546875,-2.21875 2.804688,-3.007812 2.234375,-3.914062 1.828125,-4.9375 1.421875,-5.957031 1.21875,-7.039062 1.21875,-8.1875 c 0,-1.539062 0.34375,-2.945312 1.03125,-4.21875 0.6875,-1.269531 1.644531,-2.28125 2.875,-3.03125 1.226562,-0.75 2.644531,-1.125 4.25,-1.125 1.519531,0 2.863281,0.351562 4.03125,1.046875 C 14.570312,-14.816406 15.4375,-13.875 16,-12.6875 l -2.0625,0.65625 c -0.460938,-0.832031 -1.101562,-1.484375 -1.921875,-1.953125 -0.824219,-0.46875 -1.734375,-0.703125 -2.734375,-0.703125 -1.085938,0 -2.074219,0.28125 -2.96875,0.84375 -0.898438,0.5625 -1.609375,1.335938 -2.140625,2.3125 C 3.640625,-10.550781 3.375,-9.4375 3.375,-8.1875 c 0,1.230469 0.269531,2.34375 0.8125,3.34375 0.539062,1 1.257812,1.796875 2.15625,2.390625 0.894531,0.59375 1.882812,0.890625 2.96875,0.890625 0.707031,0 1.390625,-0.125 2.046875,-0.375 0.65625,-0.25 1.226563,-0.585938 1.71875,-1.015625 0.488281,-0.425781 0.816406,-0.890625 0.984375,-1.390625 l 2.09375,0.625 c -0.292969,0.773438 -0.777344,1.464844 -1.453125,2.078125 -0.679687,0.617187 -1.46875,1.09375 -2.375,1.4375 C 11.421875,0.140625 10.445312,0.3125 9.40625,0.3125 Z m 0,0"/></g></g></g><g id="g66" fill="#252f3e" fill-opacity="1"><g id="g65" transform="translate(295.27366,217.53141)"><g id="g64"><path id="path63" d="m 2.4375,-22.8125 h 2.125 v 19.125 c 0,0.8125 0.144531,1.34375 0.4375,1.59375 0.289062,0.25 0.644531,0.375 1.0625,0.375 0.375,0 0.75,-0.039062 1.125,-0.125 0.375,-0.082031 0.695312,-0.164062 0.96875,-0.25 l 0.375,1.71875 C 8.132812,-0.207031 7.648438,-0.0703125 7.078125,0.03125 6.503906,0.132812 6.007812,0.1875 5.59375,0.1875 4.632812,0.1875 3.867188,-0.09375 3.296875,-0.65625 2.722656,-1.21875 2.4375,-1.988281 2.4375,-2.96875 Z m 0,0"/></g></g></g><g id="g69" fill="#252f3e" fill-opacity="1"><g id="g68" transform="translate(303.77153,217.53141)"><g id="g67"><path id="path66" d="m 9.28125,0.3125 c -1.167969,0 -2.246094,-0.2265625 -3.234375,-0.671875 -0.992187,-0.445313 -1.84375,-1.0625 -2.5625,-1.84375 C 2.765625,-2.984375 2.207031,-3.878906 1.8125,-4.890625 1.414062,-5.898438 1.21875,-6.96875 1.21875,-8.09375 c 0,-1.164062 0.195312,-2.253906 0.59375,-3.265625 0.394531,-1.007813 0.957031,-1.90625 1.6875,-2.6875 0.726562,-0.78125 1.585938,-1.394531 2.578125,-1.84375 0.988281,-0.445313 2.066406,-0.671875 3.234375,-0.671875 1.164062,0 2.238281,0.226562 3.21875,0.671875 0.976562,0.449219 1.832031,1.0625 2.5625,1.84375 0.726562,0.78125 1.289062,1.679687 1.6875,2.6875 0.394531,1.011719 0.59375,2.101563 0.59375,3.265625 0,1.125 -0.199219,2.195312 -0.59375,3.203125 -0.398438,1.011719 -0.953125,1.90625 -1.671875,2.6875 -0.71875,0.78125 -1.574219,1.398437 -2.5625,1.84375 C 11.554688,0.0859375 10.46875,0.3125 9.28125,0.3125 Z M 3.375,-8.0625 c 0,1.210938 0.265625,2.308594 0.796875,3.296875 0.53125,0.992187 1.242187,1.773437 2.140625,2.34375 0.894531,0.574219 1.882812,0.859375 2.96875,0.859375 1.082031,0 2.070312,-0.289062 2.96875,-0.875 0.894531,-0.582031 1.613281,-1.378906 2.15625,-2.390625 0.539062,-1.007813 0.8125,-2.109375 0.8125,-3.296875 0,-1.207031 -0.273438,-2.3125 -0.8125,-3.3125 -0.542969,-1 -1.261719,-1.789062 -2.15625,-2.375 -0.898438,-0.582031 -1.886719,-0.875 -2.96875,-0.875 -1.085938,0 -2.070312,0.304688 -2.953125,0.90625 -0.886719,0.605469 -1.601563,1.402344 -2.140625,2.390625 C 3.644531,-10.398438 3.375,-9.289062 3.375,-8.0625 Z m 0,0"/></g></g></g><g id="g72" fill="#252f3e" fill-opacity="1"><g id="g71" transform="translate(322.36063,217.53141)"><g id="g70"><path id="path69" d="m 2.1875,-6.71875 v -9.5625 h 2.125 v 9.1875 c 0,1.855469 0.316406,3.242188 0.953125,4.15625 0.632813,0.917969 1.578125,1.375 2.828125,1.375 0.832031,0 1.640625,-0.179688 2.421875,-0.546875 0.78125,-0.363281 1.472656,-0.882813 2.078125,-1.5625 0.601562,-0.675781 1.0625,-1.460937 1.375,-2.359375 v -10.25 h 2.125 V -2.5625 c 0,0.292969 0.0625,0.507812 0.1875,0.640625 0.125,0.136719 0.3125,0.214844 0.5625,0.234375 V 0 C 16.59375,0.0195312 16.394531,0.0351562 16.25,0.046875 16.101562,0.0546875 15.96875,0.0625 15.84375,0.0625 15.425781,0.0195312 15.066406,-0.144531 14.765625,-0.4375 14.460938,-0.726562 14.300781,-1.082031 14.28125,-1.5 l -0.0625,-2.1875 c -0.710938,1.25 -1.671875,2.230469 -2.890625,2.9375 -1.21875,0.7109375 -2.539063,1.0625 -3.953125,1.0625 -1.710938,0 -3,-0.59375 -3.875,-1.78125 -0.875,-1.1875 -1.3125,-2.9375 -1.3125,-5.25 z m 0,0"/></g></g></g><g id="g75" fill="#252f3e" fill-opacity="1"><g id="g74" transform="translate(340.9185,217.53141)"><g id="g73"><path id="path72" d="m 1.25,-8.09375 c 0,-1.539062 0.316406,-2.953125 0.953125,-4.234375 0.632813,-1.28125 1.515625,-2.304687 2.640625,-3.078125 1.125,-0.769531 2.40625,-1.15625 3.84375,-1.15625 1.351562,0 2.566406,0.359375 3.640625,1.078125 1.070313,0.71875 1.910156,1.589844 2.515625,2.609375 v -9.9375 h 2.125 v 20.25 c 0,0.292969 0.0625,0.507812 0.1875,0.640625 0.125,0.136719 0.3125,0.214844 0.5625,0.234375 V 0 C 17.300781,0.0625 16.976562,0.0820312 16.75,0.0625 16.3125,0.0390625 15.925781,-0.132812 15.59375,-0.46875 c -0.335938,-0.332031 -0.5,-0.695312 -0.5,-1.09375 V -3.15625 C 14.445312,-2.09375 13.570312,-1.25 12.46875,-0.625 11.363281,0 10.21875,0.3125 9.03125,0.3125 7.90625,0.3125 6.867188,0.0820312 5.921875,-0.375 4.972656,-0.832031 4.148438,-1.457031 3.453125,-2.25 2.753906,-3.039062 2.210938,-3.941406 1.828125,-4.953125 1.441406,-5.960938 1.25,-7.007812 1.25,-8.09375 Z m 13.59375,2.5 V -10.625 c -0.273438,-0.75 -0.710938,-1.429688 -1.3125,-2.046875 -0.605469,-0.613281 -1.289062,-1.101563 -2.046875,-1.46875 C 10.722656,-14.503906 9.96875,-14.6875 9.21875,-14.6875 c -0.875,0 -1.667969,0.183594 -2.375,0.546875 -0.710938,0.367187 -1.320312,0.859375 -1.828125,1.484375 -0.511719,0.625 -0.902344,1.335938 -1.171875,2.125 -0.273438,0.792969 -0.40625,1.605469 -0.40625,2.4375 0,0.875 0.148438,1.710938 0.453125,2.5 0.300781,0.792969 0.734375,1.496094 1.296875,2.109375 0.5625,0.617187 1.207031,1.089844 1.9375,1.421875 0.726562,0.335938 1.519531,0.5 2.375,0.5 0.539062,0 1.101562,-0.101562 1.6875,-0.3125 0.582031,-0.207031 1.140625,-0.492188 1.671875,-0.859375 0.53125,-0.363281 0.972656,-0.796875 1.328125,-1.296875 0.351562,-0.5 0.570312,-1.019531 0.65625,-1.5625 z m 0,0"/></g></g></g></g></svg>